# xmcd CD database file
#
# Track frame offsets:
#	150
#	22730
#	39832
#	48853
#	76427
#	94801
#	115475
#	120454
#	136279
#	148426
#
# Disc length: 2036 seconds
#
# Revision: 0
# Processed by: cddbd v1.5.2PL0 Copyright (c) Steve Scherf et al.
# Submitted via: CDex 1.51
#
DISCID=7f07f20a
DTITLE=Cro-magnon - Mellow Out and Acoustic
DYEAR=2008
DGENRE=Jazz
TTITLE0=Black Mahogani
TTITLE1=Muscle Car
TTITLE2=silent wave
TTITLE3=Beyond the Summer
TTITLE4=Never can say goodbye
TTITLE5=Mysterious Vibes
TTITLE6=Love bite
TTITLE7=Technologystolemyvinyle
TTITLE8=Mystic voyage
TTITLE9=after all that
EXTD=YEAR: 2008
EXTT0=
EXTT1=
EXTT2=
EXTT3=
EXTT4=
EXTT5=
EXTT6=
EXTT7=
EXTT8=
EXTT9=
PLAYORDER=
